# xmcd
# Copyright (C) 1995-1998 Ti Kan
#
# Track frame offsets:
#       150
#       21406
#       39609
#       65425
#       111905
#
# Disc length: 1726 seconds
#
# Revision: 0
# Processed by: cddbd v1.5.2PL0 Copyright (c) Steve Scherf et al.
# Submitted via: CD-Import v1.0
#
DISCID=4106bc05
DTITLE=Disco Doom - Rrkr
DYEAR=2002
DGENRE=
TTITLE0=Crystal Coma
TTITLE1=Sister
TTITLE2=Destroyer
TTITLE3=Soft Machine
TTITLE4=Lub
EXTD=
EXTT0=
EXTT1=
EXTT2=
EXTT3=
EXTT4=
PLAYORDER=
